<svg xmlns="http://www.w3.org/2000/svg" xmlns:xlink="http://www.w3.org/1999/xlink" xmlns:sketch="http://www.bohemiancoding.com/sketch/ns" viewBox="0 0 56 60" version="1.1" x="0px" y="0px"><title>102 - Diamond (Solid)</title><desc>Created with Sketch.</desc><g stroke="none" stroke-width="1" fill="none" fill-rule="evenodd" sketch:type="MSPage"><g sketch:type="MSLayerGroup" fill="#f05f40"><path d="M1.09,16 L24.986,45.664 L14.147,16 L1.09,16" sketch:type="MSShapeGroup"/><path d="M16.276,16 L27.825,47.606 L39.599,16 L16.276,16" sketch:type="MSShapeGroup"/><path d="M30.397,46.43 L54.91,16 L41.734,16 L30.397,46.43" sketch:type="MSShapeGroup"/><path d="M45.56,0 L30.101,0 L40.7,13.045 L45.56,0" sketch:type="MSShapeGroup"/><path d="M38.899,14 L28,0.587 L17.102,14 L38.899,14" sketch:type="MSShapeGroup"/><path d="M25.899,0 L10.43,0 L15.229,13.132 L25.899,0" sketch:type="MSShapeGroup"/><path d="M8.763,1.266 L0.805,14 L13.416,14 L8.763,1.266" sketch:type="MSShapeGroup"/><path d="M55.195,14 L47.228,1.252 L42.479,14 L55.195,14" sketch:type="MSShapeGroup"/></g></g><text x="0" y="63" fill="#f05f40" font-size="5px" font-weight="bold" font-family="'Helvetica Neue', Helvetica, Arial-Unicode, Arial, Sans-serif">Created by Ben Davis</text><text x="0" y="68" fill="#f05f40" font-size="5px" font-weight="bold" font-family="'Helvetica Neue', Helvetica, Arial-Unicode, Arial, Sans-serif">from the Noun Project</text></svg>